<svg xmlns="http://www.w3.org/2000/svg" enable-background="new 0 0 512 512" viewBox="0 0 512 512" id="EcoFuel"><g display="none" fill="#000000" class="color000000 svgShape"><path fill="none" stroke="#000000" stroke-linecap="round" stroke-linejoin="round" stroke-miterlimit="10" stroke-width="16" d="
		M392,96l14.2,7.1c10.9,5.4,17.8,16.6,17.8,28.8l0,28.1" class="colorStroke000000 svgStroke"></path><rect width="320" height="32" x="24" y="456" fill="#c1c1c1" stroke="#000000" stroke-linecap="round" stroke-linejoin="round" stroke-miterlimit="10" stroke-width="16" class="colorc1c1c1 svgShape colorStroke000000 svgStroke"></rect><path fill="#c1c1c1" stroke="#000000" stroke-linecap="round" stroke-linejoin="round" stroke-miterlimit="10" stroke-width="16" d="
		M313,24H55c-8.3,0-15,6.7-15,15v417h288V39C328,30.7,321.3,24,313,24z" class="colorc1c1c1 svgShape colorStroke000000 svgStroke"></path><rect width="224" height="128" x="72" y="56" fill="#c1c1c1" stroke="#000000" stroke-linecap="round" stroke-linejoin="round" stroke-miterlimit="10" stroke-width="16" class="colorc1c1c1 svgShape colorStroke000000 svgStroke"></rect><rect width="32" height="64" x="328" y="344" fill="#c1c1c1" stroke="#000000" stroke-linecap="round" stroke-linejoin="round" stroke-miterlimit="10" stroke-width="16" class="colorc1c1c1 svgShape colorStroke000000 svgStroke"></rect><path fill="none" stroke="#000000" stroke-linecap="round" stroke-linejoin="round" stroke-miterlimit="10" stroke-width="16" d="
		M368,376h19.1c7.1,0,12.9,5.8,12.9,12.9V440c0,8.8,7.2,16,16,16h0c8.8,0,16-7.2,16-16V208" class="colorStroke000000 svgStroke"></path><path fill="#c1c1c1" stroke="#000000" stroke-linecap="round" stroke-linejoin="round" stroke-miterlimit="10" stroke-width="16" d="M456 280h-48V152h3.5c24.6 0 44.5 19.9 44.5 44.5V280zM347.5 136H328V56h19.5c6.9 0 12.5 5.6 12.5 12.5v55.1C360 130.4 354.4 136 347.5 136z" class="colorc1c1c1 svgShape colorStroke000000 svgStroke"></path><rect width="32" height="32" x="360" y="80" fill="#c1c1c1" stroke="#000000" stroke-linecap="round" stroke-linejoin="round" stroke-miterlimit="10" stroke-width="16" class="colorc1c1c1 svgShape colorStroke000000 svgStroke"></rect><rect width="48" height="48" x="408" y="232" fill="#c1c1c1" stroke="#000000" stroke-linecap="round" stroke-linejoin="round" stroke-miterlimit="10" stroke-width="16" class="colorc1c1c1 svgShape colorStroke000000 svgStroke"></rect><path fill="none" stroke="#000000" stroke-linecap="round" stroke-linejoin="round" stroke-miterlimit="10" stroke-width="16" d="
		M479.1,264H456v-64h23.1c4.9,0,8.9,4,8.9,8.9v46.2C488,260,484,264,479.1,264z" class="colorStroke000000 svgStroke"></path><path fill="#c1c1c1" stroke="#000000" stroke-linecap="round" stroke-linejoin="round" stroke-miterlimit="10" stroke-width="16" d="
		M264,344c0,44.2-35.8,80-80,80s-80-35.8-80-80s80-128,80-128S264,299.8,264,344z" class="colorc1c1c1 svgShape colorStroke000000 svgStroke"></path><path fill="#c1c1c1" stroke="#000000" stroke-linecap="round" stroke-linejoin="round" stroke-miterlimit="10" stroke-width="16" d="
		M208,352c-19.9,19.9-56,16-56,16s-3.9-36.1,16-56s56-16,56-16S227.9,332.1,208,352z" class="colorc1c1c1 svgShape colorStroke000000 svgStroke"></path><line x1="144" x2="184" y1="376" y2="336" fill="#C1C1C1" stroke="#000000" stroke-linecap="round" stroke-linejoin="round" stroke-miterlimit="10" stroke-width="16" class="colorStroke000000 svgStroke"></line><rect width="32" height="64" x="232" y="88" fill="#c1c1c1" stroke="#000000" stroke-linecap="round" stroke-linejoin="round" stroke-miterlimit="10" stroke-width="16" class="colorc1c1c1 svgShape colorStroke000000 svgStroke"></rect><rect width="32" height="64" x="168" y="88" fill="#c1c1c1" stroke="#000000" stroke-linecap="round" stroke-linejoin="round" stroke-miterlimit="10" stroke-width="16" class="colorc1c1c1 svgShape colorStroke000000 svgStroke"></rect><rect width="32" height="64" x="104" y="88" fill="#c1c1c1" stroke="#000000" stroke-linecap="round" stroke-linejoin="round" stroke-miterlimit="10" stroke-width="16" class="colorc1c1c1 svgShape colorStroke000000 svgStroke"></rect></g><g display="none" fill="#000000" class="color000000 svgShape"><path d="M296,48H72c-4.4,0-8,3.6-8,8v128c0,4.4,3.6,8,8,8h224c4.4,0,8-3.6,8-8V56C304,51.6,300.4,48,296,48z M288,176H80V64h208
			V176z" fill="#000000" class="color000000 svgShape"></path><path d="M479.1,192h-15.3c-1.7-19.7-14.3-36.4-31.8-43.8v-16.3c0-15.3-8.5-29.1-22.2-35.9l-9.8-4.9V80c0-4.4-3.6-8-8-8h-24v-3.5
			c0-11.3-9.2-20.5-20.5-20.5H336v-9c0-12.7-10.3-23-23-23H55c-12.7,0-23,10.3-23,23v409h-8c-4.4,0-8,3.6-8,8v32c0,4.4,3.6,8,8,8
			h320c4.4,0,8-3.6,8-8v-32c0-4.4-3.6-8-8-8h-8v-32h24c4.4,0,8-3.6,8-8v-24h19.1c2.7,0,4.9,2.2,4.9,4.9V440c0,13.2,10.8,24,24,24
			s24-10.8,24-24V288h16c4.4,0,8-3.6,8-8v-8h15.1c9.3,0,16.9-7.6,16.9-16.9v-46.2C496,199.6,488.4,192,479.1,192z M448,196.5v3.5v24
			h-32v-63.7C434,162.5,448,177.9,448,196.5z M384,88v16h-16V88H384z M347.5,64c2.5,0,4.5,2,4.5,4.5V80v32v11.5c0,2.5-2,4.5-4.5,4.5
			H336V64H347.5z M336,480H32v-16h8h288h8V480z M48,448V39c0-3.9,3.1-7,7-7h258c3.9,0,7,3.1,7,7v17v80v208v64v40H48z M352,400h-16
			v-48h16V400z M424,440c0,4.4-3.6,8-8,8s-8-3.6-8-8v-51.1c0-11.5-9.4-20.9-20.9-20.9H368v-24c0-4.4-3.6-8-8-8h-24V144h11.5
			c11.3,0,20.5-9.2,20.5-20.5V120h24c4.4,0,8-3.6,8-8v-3.1l2.6,1.3c8.2,4.1,13.4,12.4,13.4,21.6v12.3c-1.5-0.1-3-0.2-4.5-0.2H408
			c-4.4,0-8,3.6-8,8v80v48c0,4.4,3.6,8,8,8h16V440z M448,272h-32v-32h32v24V272z M480,255.1c0,0.5-0.4,0.9-0.9,0.9H464v-24v-24h15.1
			c0.5,0,0.9,0.4,0.9,0.9V255.1z" fill="#000000" class="color000000 svgShape"></path><path d="M189.8,210.5c-1.5-1.6-3.6-2.5-5.8-2.5s-4.3,0.9-5.8,2.5c-0.8,0.9-20.5,21.6-40.6,48.1C110,295.2,96,323.9,96,344
			c0,48.5,39.5,88,88,88s88-39.5,88-88c0-20.1-14-48.8-41.6-85.4C210.3,232.1,190.6,211.3,189.8,210.5z M184,416
			c-39.7,0-72-32.3-72-72c0-30.9,47.6-89.5,72-116.3c24.4,26.8,72,85.3,72,116.3C256,383.7,223.7,416,184,416z" fill="#000000" class="color000000 svgShape"></path><path d="M143.8 364.9l-5.4 5.4c-3.1 3.1-3.1 8.2 0 11.3 1.6 1.6 3.6 2.3 5.7 2.3s4.1-.8 5.7-2.3l5.4-5.4c1.2.1 2.7.1 4.3.1 12.9 0 37.9-2.3 54.2-18.7 22.3-22.3 18.5-60.9 18.3-62.5-.4-3.7-3.4-6.7-7.1-7.1-1.6-.2-40.2-4-62.5 18.3C143.9 324.8 143.3 354.3 143.8 364.9zM216.3 303.7c0 10.5-1.8 30.5-14 42.6-8.3 8.3-20.4 11.8-30.5 13.1l17.8-17.8c3.1-3.1 3.1-8.2 0-11.3-3.1-3.1-8.2-3.1-11.3 0l-17.8 17.8c1.4-10.1 4.8-22.2 13.1-30.5C185.8 305.5 205.8 303.7 216.3 303.7zM232 160h32c4.4 0 8-3.6 8-8V88c0-4.4-3.6-8-8-8h-32c-4.4 0-8 3.6-8 8v64C224 156.4 227.6 160 232 160zM240 96h16v48h-16V96zM168 160h32c4.4 0 8-3.6 8-8V88c0-4.4-3.6-8-8-8h-32c-4.4 0-8 3.6-8 8v64C160 156.4 163.6 160 168 160zM176 96h16v48h-16V96zM104 160h32c4.4 0 8-3.6 8-8V88c0-4.4-3.6-8-8-8h-32c-4.4 0-8 3.6-8 8v64C96 156.4 99.6 160 104 160zM112 96h16v48h-16V96z" fill="#000000" class="color000000 svgShape"></path></g><linearGradient id="a" x1=".197" x2="399.51" y1="475.51" y2="76.197" gradientUnits="userSpaceOnUse"><stop offset="0" stop-color="#ffffff" class="stopColorffffff svgShape"></stop><stop offset=".018" stop-color="#43e912" class="stopColor12c2e9 svgShape"></stop><stop offset=".51" stop-color="#8ded71" class="stopColorc471ed svgShape"></stop><stop offset="1" stop-color="#75f64f" class="stopColorf64f59 svgShape"></stop></linearGradient><path fill="url(#a)" d="M296,48H72c-4.4,0-8,3.6-8,8v128c0,4.4,3.6,8,8,8h224c4.4,0,8-3.6,8-8V56C304,51.6,300.4,48,296,48z
		 M288,176H80V64h208V176z M479.1,192h-15.3c-1.7-19.7-14.3-36.4-31.8-43.8v-16.3c0-15.3-8.5-29.1-22.2-35.9l-9.8-4.9V80
		c0-4.4-3.6-8-8-8h-24v-3.5c0-11.3-9.2-20.5-20.5-20.5H336v-9c0-12.7-10.3-23-23-23H55c-12.7,0-23,10.3-23,23v409h-8
		c-4.4,0-8,3.6-8,8v32c0,4.4,3.6,8,8,8h320c4.4,0,8-3.6,8-8v-32c0-4.4-3.6-8-8-8h-8v-32h24c4.4,0,8-3.6,8-8v-24h19.1
		c2.7,0,4.9,2.2,4.9,4.9V440c0,13.2,10.8,24,24,24s24-10.8,24-24V288h16c4.4,0,8-3.6,8-8v-8h15.1c9.3,0,16.9-7.6,16.9-16.9v-46.2
		C496,199.6,488.4,192,479.1,192z M48,39c0-3.9,3.1-7,7-7h258c3.9,0,7,3.1,7,7v17v80v208v64v40H48V39z M336,480H32v-16h8h288h8V480z
		 M368,88h16v16h-16V88z M336,64h11.5c2.5,0,4.5,2,4.5,4.5V80v32v11.5c0,2.5-2,4.5-4.5,4.5H336V64z M352,400h-16v-48h16V400z
		 M424,440c0,4.4-3.6,8-8,8s-8-3.6-8-8v-51.1c0-11.5-9.4-20.9-20.9-20.9H368v-24c0-4.4-3.6-8-8-8h-24V144h11.5
		c11.3,0,20.5-9.2,20.5-20.5V120h24c4.4,0,8-3.6,8-8v-3.1l2.6,1.3c8.2,4.1,13.4,12.4,13.4,21.6v12.3c-1.5-0.1-3-0.2-4.5-0.2H408
		c-4.4,0-8,3.6-8,8v80v48c0,4.4,3.6,8,8,8h16V440z M448,264v8h-32v-32h32V264z M448,200v24h-32v-63.7c18,2.2,32,17.6,32,36.2V200z
		 M480,255.1c0,0.5-0.4,0.9-0.9,0.9H464v-24v-24h15.1c0.5,0,0.9,0.4,0.9,0.9V255.1z M189.8,210.5c-1.5-1.6-3.6-2.5-5.8-2.5
		s-4.3,0.9-5.8,2.5c-0.8,0.9-20.5,21.6-40.6,48.1C110,295.2,96,323.9,96,344c0,48.5,39.5,88,88,88s88-39.5,88-88
		c0-20.1-14-48.8-41.6-85.4C210.3,232.1,190.6,211.3,189.8,210.5z M184,416c-39.7,0-72-32.3-72-72c0-30.9,47.6-89.5,72-116.3
		c24.4,26.8,72,85.3,72,116.3C256,383.7,223.7,416,184,416z M143.8,364.9l-5.4,5.4c-3.1,3.1-3.1,8.2,0,11.3c1.6,1.6,3.6,2.3,5.7,2.3
		s4.1-0.8,5.7-2.3l5.4-5.4c1.2,0.1,2.7,0.1,4.3,0.1c12.9,0,37.9-2.3,54.2-18.7c22.3-22.3,18.5-60.9,18.3-62.5
		c-0.4-3.7-3.4-6.7-7.1-7.1c-1.6-0.2-40.2-4-62.5,18.3C143.9,324.8,143.3,354.3,143.8,364.9z M216.3,303.7c0,10.5-1.8,30.5-14,42.6
		c-8.3,8.3-20.4,11.8-30.5,13.1l17.8-17.8c3.1-3.1,3.1-8.2,0-11.3c-3.1-3.1-8.2-3.1-11.3,0l-17.8,17.8c1.4-10.1,4.8-22.2,13.1-30.5
		C185.8,305.5,205.8,303.7,216.3,303.7z M232,160h32c4.4,0,8-3.6,8-8V88c0-4.4-3.6-8-8-8h-32c-4.4,0-8,3.6-8,8v64
		C224,156.4,227.6,160,232,160z M240,96h16v48h-16V96z M168,160h32c4.4,0,8-3.6,8-8V88c0-4.4-3.6-8-8-8h-32c-4.4,0-8,3.6-8,8v64
		C160,156.4,163.6,160,168,160z M176,96h16v48h-16V96z M104,160h32c4.4,0,8-3.6,8-8V88c0-4.4-3.6-8-8-8h-32c-4.4,0-8,3.6-8,8v64
		C96,156.4,99.6,160,104,160z M112,96h16v48h-16V96z"></path><g display="none" fill="#000000" class="color000000 svgShape"><rect width="16" height="48" x="240" y="96" fill="#000000" class="color000000 svgShape"></rect><rect width="16" height="48" x="112" y="96" fill="#000000" class="color000000 svgShape"></rect><rect width="16" height="48" x="176" y="96" fill="#000000" class="color000000 svgShape"></rect><path d="M178.3,330.3c3.1-3.1,8.2-3.1,11.3,0c3.1,3.1,3.1,8.2,0,11.3l-17.8,17.8c10.1-1.4,22.2-4.8,30.5-13.1
			c12.1-12.1,13.9-32.2,14-42.6c-10.5,0-30.5,1.8-42.6,14c-8.3,8.3-11.8,20.4-13.1,30.5L178.3,330.3z" fill="#000000" class="color000000 svgShape"></path><rect width="24" height="32" x="360" y="80" fill="#000000" class="color000000 svgShape"></rect><path d="M112 344c0 39.7 32.3 72 72 72s72-32.3 72-72c0-30.9-47.6-89.5-72-116.3C159.6 254.5 112 313.1 112 344zM224.9 288c3.7.4 6.7 3.4 7.1 7.1.2 1.6 4 40.2-18.3 62.5-16.3 16.3-41.4 18.7-54.2 18.7-1.7 0-3.1 0-4.3-.1l-5.4 5.4c-1.6 1.6-3.6 2.3-5.7 2.3s-4.1-.8-5.7-2.3c-3.1-3.1-3.1-8.2 0-11.3l5.4-5.4c-.5-10.6.1-40.1 18.6-58.6C184.7 284 223.2 287.9 224.9 288zM352 123.5V112 80 68.5c0-2.5-2-4.5-4.5-4.5H328v64h19.5C350 128 352 126 352 123.5zM80 176h208V64H80V176zM224 88c0-4.4 3.6-8 8-8h32c4.4 0 8 3.6 8 8v64c0 4.4-3.6 8-8 8h-32c-4.4 0-8-3.6-8-8V88zM160 88c0-4.4 3.6-8 8-8h32c4.4 0 8 3.6 8 8v64c0 4.4-3.6 8-8 8h-32c-4.4 0-8-3.6-8-8V88zM96 88c0-4.4 3.6-8 8-8h32c4.4 0 8 3.6 8 8v64c0 4.4-3.6 8-8 8h-32c-4.4 0-8-3.6-8-8V88z" fill="#000000" class="color000000 svgShape"></path><polygon points="40 464 32 464 32 480 336 480 336 464 328 464" fill="#000000" class="color000000 svgShape"></polygon><path d="M478.7 208H456v-8-3.5c0-12.5-9.5-23.6-24-30.2l0-34.4c0-15.3-8.5-29.1-22.2-35.9l-14.2-7.1c-4-2-8.8-.4-10.7 3.6-2 4-.4 8.8 3.6 10.7l14.2 7.1c8.2 4.1 13.4 12.4 13.4 21.6l0 29.5c-2.6-.5-5.3-.8-8-1.1V224h16v16h-16v56h16v144c0 4.4-3.6 8-8 8s-8-3.6-8-8v-51.1c0-11.5-9.4-20.9-20.9-20.9H352v-16h-24v48h24v-16h35.1c2.7 0 4.9 2.2 4.9 4.9V440c0 13.2 10.8 24 24 24s24-10.8 24-24V296h16v-14-26h22.7c.7 0 1.3-.4 1.3-.9v-46.2C480 208.4 479.4 208 478.7 208zM456 232v8h-16v-16h16V232zM320 408v-64V136 56 39c0-3.9-3.1-7-7-7H55c-3.9 0-7 3.1-7 7v409h272V408zM184 432c-48.5 0-88-39.5-88-88 0-20.1 14-48.8 41.6-85.4 20-26.5 39.8-47.3 40.6-48.1 1.5-1.6 3.6-2.5 5.8-2.5s4.3.9 5.8 2.5c.8.9 20.5 21.6 40.6 48.1C258 295.2 272 323.9 272 344 272 392.5 232.5 432 184 432zM304 184c0 4.4-3.6 8-8 8H72c-4.4 0-8-3.6-8-8V56c0-4.4 3.6-8 8-8h224c4.4 0 8 3.6 8 8V184z" fill="#000000" class="color000000 svgShape"></path></g><g display="none" fill="#000000" class="color000000 svgShape"><path fill="#728d6a" d="M471.1,272H448c-4.4,0-8-3.6-8-8v-64c0-4.4,3.6-8,8-8h23.1c9.3,0,16.9,7.6,16.9,16.9v46.2
			C488,264.4,480.4,272,471.1,272z M456,256h15.1c0.5,0,0.9-0.4,0.9-0.9v-46.2c0-0.5-0.4-0.9-0.9-0.9H456V256z" class="color6a788d svgShape"></path><path fill="#64ff36" d="M416 464c-13.2 0-24-10.8-24-24v-51.1c0-2.7-2.2-4.9-4.9-4.9H360c-4.4 0-8-3.6-8-8s3.6-8 8-8h27.1c11.5 0 20.9 9.4 20.9 20.9V440c0 4.4 3.6 8 8 8s8-3.6 8-8V280c0-4.4 3.6-8 8-8s8 3.6 8 8v160C440 453.2 429.2 464 416 464zM424 168C424 168 424 168 424 168c-4.4 0-8-3.6-8-8l0-28.1c0-9.2-5.1-17.5-13.4-21.6l-14.2-7.1c-4-2-5.6-6.8-3.6-10.7 2-4 6.8-5.6 10.7-3.6l14.2 7.1c13.7 6.8 22.2 20.6 22.2 35.9l0 28.1C432 164.4 428.4 168 424 168z" class="coloraab961 svgShape"></path><rect width="320" height="32" x="24" y="456" fill="#96b98b" class="color8b9eb9 svgShape"></rect><path fill="#b9e4ac" d="M313,24H55c-8.3,0-15,6.7-15,15v417h288V39C328,30.7,321.3,24,313,24z" class="coloracc3e4 svgShape"></path><rect width="224" height="128" x="72" y="56" fill="#a8f492" class="colorf4e192 svgShape"></rect><rect width="32" height="64" x="328" y="344" fill="#96b98b" class="color8b9eb9 svgShape"></rect><path fill="#96b98b" d="M456 280h-48V152h3.5c24.6 0 44.5 19.9 44.5 44.5V280zM347.5 136H328V56h19.5c6.9 0 12.5 5.6 12.5 12.5v55.1C360 130.4 354.4 136 347.5 136z" class="color8b9eb9 svgShape"></path><rect width="32" height="32" x="360" y="80" fill="#728d6a" class="color6a788d svgShape"></rect><rect width="48" height="48" x="408" y="232" fill="#b9e4ac" class="coloracc3e4 svgShape"></rect><path fill="#a8f492" d="M264,344c0,44.2-35.8,80-80,80s-80-35.8-80-80s80-128,80-128S264,299.8,264,344z" class="colorf4e192 svgShape"></path><path fill="#84bf72" d="M144,384c-2,0-4.1-0.8-5.7-2.3c-3.1-3.1-3.1-8.2,0-11.3l40-40c3.1-3.1,8.2-3.1,11.3,0
			c3.1,3.1,3.1,8.2,0,11.3l-40,40C148.1,383.2,146,384,144,384z" class="colorbfb072 svgShape"></path><rect width="32" height="64" x="232" y="88" fill="#b9e4ac" class="coloracc3e4 svgShape"></rect><rect width="32" height="64" x="168" y="88" fill="#64ff36" class="coloraab961 svgShape"></rect><rect width="32" height="64" x="104" y="88" fill="#879583" class="color958e83 svgShape"></rect><path fill="#64ff36" d="M208,352c-19.9,19.9-56,16-56,16s-3.9-36.1,16-56s56-16,56-16S227.9,332.1,208,352z" class="coloraab961 svgShape"></path></g><g display="none" fill="#000000" class="color000000 svgShape"><path fill="#728d6a" d="M479.1,272H456c-4.4,0-8-3.6-8-8v-64c0-4.4,3.6-8,8-8h23.1c9.3,0,16.9,7.6,16.9,16.9v46.2
			C496,264.4,488.4,272,479.1,272z M464,256h15.1c0.5,0,0.9-0.4,0.9-0.9v-46.2c0-0.5-0.4-0.9-0.9-0.9H464V256z" class="color6a788d svgShape"></path><path fill="#64ff36" d="M416 464c-13.2 0-24-10.8-24-24v-51.1c0-2.7-2.2-4.9-4.9-4.9H360c-4.4 0-8-3.6-8-8s3.6-8 8-8h27.1c11.5 0 20.9 9.4 20.9 20.9V440c0 4.4 3.6 8 8 8s8-3.6 8-8V280c0-4.4 3.6-8 8-8s8 3.6 8 8v160C440 453.2 429.2 464 416 464zM424 168C424 168 424 168 424 168c-4.4 0-8-3.6-8-8l0-28.1c0-9.2-5.1-17.5-13.4-21.6l-14.2-7.1c-4-2-5.6-6.8-3.6-10.7 2-4 6.8-5.6 10.7-3.6l14.2 7.1c13.7 6.8 22.2 20.6 22.2 35.9l0 28.1C432 164.4 428.4 168 424 168z" class="coloraab961 svgShape"></path><rect width="320" height="32" x="24" y="456" fill="#96b98b" class="color8b9eb9 svgShape"></rect><path fill="#b9e4ac" d="M313,24H55c-8.3,0-15,6.7-15,15v417h288V39C328,30.7,321.3,24,313,24z" class="coloracc3e4 svgShape"></path><rect width="224" height="128" x="72" y="56" fill="#a8f492" class="colorf4e192 svgShape"></rect><rect width="32" height="64" x="328" y="344" fill="#96b98b" class="color8b9eb9 svgShape"></rect><path fill="#96b98b" d="M456 280h-48V152h3.5c24.6 0 44.5 19.9 44.5 44.5V280zM347.5 136H328V56h19.5c6.9 0 12.5 5.6 12.5 12.5v55.1C360 130.4 354.4 136 347.5 136z" class="color8b9eb9 svgShape"></path><rect width="32" height="32" x="360" y="80" fill="#728d6a" class="color6a788d svgShape"></rect><rect width="48" height="48" x="408" y="232" fill="#b9e4ac" class="coloracc3e4 svgShape"></rect><path fill="#a8f492" d="M264,344c0,44.2-35.8,80-80,80s-80-35.8-80-80s80-128,80-128S264,299.8,264,344z" class="colorf4e192 svgShape"></path><path fill="#84bf72" d="M144,384c-2,0-4.1-0.8-5.7-2.3c-3.1-3.1-3.1-8.2,0-11.3l40-40c3.1-3.1,8.2-3.1,11.3,0
			c3.1,3.1,3.1,8.2,0,11.3l-40,40C148.1,383.2,146,384,144,384z" class="colorbfb072 svgShape"></path><rect width="32" height="64" x="232" y="88" fill="#b9e4ac" class="coloracc3e4 svgShape"></rect><rect width="32" height="64" x="168" y="88" fill="#64ff36" class="coloraab961 svgShape"></rect><rect width="32" height="64" x="104" y="88" fill="#879583" class="color958e83 svgShape"></rect><path fill="#64ff36" d="M208,352c-19.9,19.9-56,16-56,16s-3.9-36.1,16-56s56-16,56-16S227.9,332.1,208,352z" class="coloraab961 svgShape"></path><path d="M296,48H72c-4.4,0-8,3.6-8,8v128c0,4.4,3.6,8,8,8h224c4.4,0,8-3.6,8-8V56C304,51.6,300.4,48,296,48z M288,176H80V64h208
			V176z" fill="#000000" class="color000000 svgShape"></path><path d="M479.1,192h-15.3c-1.7-19.7-14.3-36.4-31.8-43.8v-16.3c0-15.3-8.5-29.1-22.2-35.9l-9.8-4.9V80c0-4.4-3.6-8-8-8h-24v-3.5
			c0-11.3-9.2-20.5-20.5-20.5H336v-9c0-12.7-10.3-23-23-23H55c-12.7,0-23,10.3-23,23v409h-8c-4.4,0-8,3.6-8,8v32c0,4.4,3.6,8,8,8
			h320c4.4,0,8-3.6,8-8v-32c0-4.4-3.6-8-8-8h-8v-32h24c4.4,0,8-3.6,8-8v-24h19.1c2.7,0,4.9,2.2,4.9,4.9V440c0,13.2,10.8,24,24,24
			s24-10.8,24-24V288h16c4.4,0,8-3.6,8-8v-8h15.1c9.3,0,16.9-7.6,16.9-16.9v-46.2C496,199.6,488.4,192,479.1,192z M448,196.5v3.5v24
			h-32v-63.7C434,162.5,448,177.9,448,196.5z M384,88v16h-16V88H384z M347.5,64c2.5,0,4.5,2,4.5,4.5V80v32v11.5c0,2.5-2,4.5-4.5,4.5
			H336V64H347.5z M336,480H32v-16h8h288h8V480z M48,448V39c0-3.9,3.1-7,7-7h258c3.9,0,7,3.1,7,7v17v80v208v64v40H48z M352,400h-16
			v-48h16V400z M424,440c0,4.4-3.6,8-8,8s-8-3.6-8-8v-51.1c0-11.5-9.4-20.9-20.9-20.9H368v-24c0-4.4-3.6-8-8-8h-24V144h11.5
			c11.3,0,20.5-9.2,20.5-20.5V120h24c4.4,0,8-3.6,8-8v-3.1l2.6,1.3c8.2,4.1,13.4,12.4,13.4,21.6v12.3c-1.5-0.1-3-0.2-4.5-0.2H408
			c-4.4,0-8,3.6-8,8v80v48c0,4.4,3.6,8,8,8h16V440z M448,272h-32v-32h32v24V272z M480,255.1c0,0.5-0.4,0.9-0.9,0.9H464v-24v-24h15.1
			c0.5,0,0.9,0.4,0.9,0.9V255.1z" fill="#000000" class="color000000 svgShape"></path><path d="M189.8,210.5c-1.5-1.6-3.6-2.5-5.8-2.5s-4.3,0.9-5.8,2.5c-0.8,0.9-20.5,21.6-40.6,48.1C110,295.2,96,323.9,96,344
			c0,48.5,39.5,88,88,88s88-39.5,88-88c0-20.1-14-48.8-41.6-85.4C210.3,232.1,190.6,211.3,189.8,210.5z M184,416
			c-39.7,0-72-32.3-72-72c0-30.9,47.6-89.5,72-116.3c24.4,26.8,72,85.3,72,116.3C256,383.7,223.7,416,184,416z" fill="#000000" class="color000000 svgShape"></path><path d="M143.8 364.9l-5.4 5.4c-3.1 3.1-3.1 8.2 0 11.3 1.6 1.6 3.6 2.3 5.7 2.3s4.1-.8 5.7-2.3l5.4-5.4c1.2.1 2.7.1 4.3.1 12.9 0 37.9-2.3 54.2-18.7 22.3-22.3 18.5-60.9 18.3-62.5-.4-3.7-3.4-6.7-7.1-7.1-1.6-.2-40.2-4-62.5 18.3C143.9 324.8 143.3 354.3 143.8 364.9zM216.3 303.7c0 10.5-1.8 30.5-14 42.6-8.3 8.3-20.4 11.8-30.5 13.1l17.8-17.8c3.1-3.1 3.1-8.2 0-11.3-3.1-3.1-8.2-3.1-11.3 0l-17.8 17.8c1.4-10.1 4.8-22.2 13.1-30.5C185.8 305.5 205.8 303.7 216.3 303.7zM232 160h32c4.4 0 8-3.6 8-8V88c0-4.4-3.6-8-8-8h-32c-4.4 0-8 3.6-8 8v64C224 156.4 227.6 160 232 160zM240 96h16v48h-16V96zM168 160h32c4.4 0 8-3.6 8-8V88c0-4.4-3.6-8-8-8h-32c-4.4 0-8 3.6-8 8v64C160 156.4 163.6 160 168 160zM176 96h16v48h-16V96zM104 160h32c4.4 0 8-3.6 8-8V88c0-4.4-3.6-8-8-8h-32c-4.4 0-8 3.6-8 8v64C96 156.4 99.6 160 104 160zM112 96h16v48h-16V96z" fill="#000000" class="color000000 svgShape"></path></g></svg>